<svg height="512pt" viewBox="-26 0 512 512" width="512pt" xmlns="http://www.w3.org/2000/svg"><path d="m199.59375 121.492188c-19.144531 0-34.710938-15.570313-34.710938-34.710938 0-19.144531 15.566407-34.714844 34.710938-34.714844s34.710938 15.570313 34.710938 34.714844c0 19.140625-15.566407 34.710938-34.710938 34.710938zm0-52.070313c-9.574219 0-17.355469 7.785156-17.355469 17.359375 0 9.570312 7.78125 17.355469 17.355469 17.355469 9.570312 0 17.355469-7.785157 17.355469-17.355469 0-9.574219-7.785157-17.359375-17.355469-17.359375zm0 0" fill="#7383bf"/><path d="m396.410156 334.710938c-6.8125-11.160157-3.332031-23.1875-4.816406-35.320313-.554688-4.582031 2.175781-8.722656 5.945312-11.324219-11.109374-91.085937-83.414062-163.25-174.664062-173.855468-1.238281 6.335937-7.445312 11.210937-13.882812 11.253906-7.941407.0625-15.402344.191406-23.273438-1.222656-5.140625-.929688-8.429688-5.214844-9.644531-10.003907-91.316407 10.722657-163.628907 83.097657-174.503907 174.363281 3.539063 2.664063 5.867188 7.023438 6.023438 11.507813.015625.566406.027344.980469.027344 1.269531 0 .015625 0 .007813.007812.023438.207032 1.121094.492188 2.222656.78125 3.324218.441406 1.710938.945313 3.394532 1.28125 5.128907 1.164063 5.839843 1.226563 11.367187-.433594 17.148437-1.214843 4.242188-4.171874 7.296875-7.835937 8.921875 10.789063 91.847657 83.933594 164.507813 175.945313 174.71875 1.789062-2.183593 4.167968-3.800781 6.910156-4.292969 4.449218-.800781 8.9375-1.234374 13.441406-1.632812.765625-.058594 1.519531-.128906 2.273438-.207031-1.222657.214843-.953126.171875.789062-.121094 2.03125-.410156 3.964844-.9375 5.910156-1.648437 6.621094-2.421876 13.46875 1.933593 16.429688 7.722656 91.230468-10.746094 163.636718-82.875 174.574218-174.054688-.433593-.539062-.886718-1.058594-1.285156-1.699218zm0 0" fill="#e7eced"/><path d="m305.132812 214.726562-56.449218 146.769532-146.335938 56.289062c-5.085937 1.949219-10.082031-3.039062-8.132812-8.132812l56.289062-146.335938 146.769532-56.449218c4.917968-1.894532 9.753906 2.941406 7.859374 7.859374zm0 0" fill="#366db6"/><g fill="#dd352e"><path d="m199.59375 164.882812 27.003906-50.203124c-8.832031-1.1875-17.839844-1.867188-27.003906-1.867188s-18.171875.679688-27.007812 1.867188zm0 0"/><path d="m397.320312 339.414062c1.1875-8.835937 1.867188-17.84375 1.867188-27.007812s-.679688-18.171875-1.867188-27.003906l-50.203124 27.003906zm0 0"/><path d="m199.59375 512c9.164062 0 18.171875-.675781 27.003906-1.867188l-27.003906-50.199218-27.007812 50.199218c8.835937 1.191407 17.84375 1.867188 27.007812 1.867188zm0 0"/><path d="m1.867188 339.414062 50.199218-27.007812-50.199218-27.003906c-1.191407 8.832031-1.867188 17.839844-1.867188 27.003906s.675781 18.171875 1.867188 27.007812zm0 0"/></g><path d="m199.59375 78.101562h-26.035156c-14.351563 0-26.03125-11.679687-26.03125-26.035156 0-28.714844-23.363282-52.066406-52.070313-52.066406h-52.066406c-4.792969 0-8.679687 3.878906-8.679687 8.679688 0 4.796874 3.886718 8.675781 8.679687 8.675781h52.066406c19.144531 0 34.710938 15.570312 34.710938 34.710937 0 23.925782 19.464843 43.390625 43.390625 43.390625h26.035156c4.789062 0 8.675781-3.878906 8.675781-8.675781 0-4.800781-3.886719-8.679688-8.675781-8.679688zm0 0" fill="#f2ecbf"/><path d="m451.253906 173.558594c-23.925781 0-43.390625-19.464844-43.390625-43.390625 0-19.140625-15.566406-34.710938-34.710937-34.710938h-112.8125c-4.792969 0-8.679688-3.878906-8.679688-8.675781 0-4.800781 3.886719-8.679688 8.679688-8.679688h112.8125c28.714844 0 52.066406 23.351563 52.066406 52.066407 0 14.355469 11.683594 26.035156 26.035156 26.035156 4.789063 0 8.679688 3.878906 8.679688 8.679687 0 4.796876-3.890625 8.675782-8.679688 8.675782zm0 0" fill="#f2ecbf"/><path d="m52.46875 177.550781 19.496094 19.5c1.695312 1.691407 3.914062 2.542969 6.136718 2.542969 2.222657 0 4.441407-.851562 6.136719-2.542969 3.390625-3.394531 3.390625-8.878906 0-12.269531l-19.5-19.5c-4.261719 3.914062-8.359375 8.007812-12.269531 12.269531zm0 0" fill="#afb6bb"/><path d="m327.21875 427.761719c-3.390625-3.390625-8.875-3.390625-12.269531 0-3.394531 3.394531-3.394531 8.878906 0 12.273437l19.5 19.496094c4.261719-3.910156 8.355469-8.007812 12.269531-12.269531zm0 0" fill="#afb6bb"/><path d="m147.089844 272.183594 27.953125 27.953125c1.691406 1.691406 3.914062 2.542969 6.136719 2.542969 2.21875 0 4.441406-.851563 6.132812-2.542969 3.394531-3.394531 3.394531-8.878907 0-12.269531l-27.949219-27.953126-8.859375 3.410157zm0 0" fill="#1f436d"/><path d="m224.132812 324.675781c-3.390624-3.390625-8.875-3.390625-12.269531 0-3.390625 3.394531-3.390625 8.878907 0 12.273438l27.960938 27.960937 8.859375-3.414062 3.410156-8.859375zm0 0" fill="#1f436d"/><path d="m225.628906 312.40625c0 14.378906-11.65625 26.035156-26.035156 26.035156s-26.035156-11.65625-26.035156-26.035156 11.65625-26.035156 26.035156-26.035156 26.035156 11.65625 26.035156 26.035156zm0 0" fill="#fff"/></svg>